<svg width="24" height="24" viewBox="0 0 24 24" fill="none" xmlns="http://www.w3.org/2000/svg">
  <path d="M17 21V19C17 17.9391 16.5786 16.9217 15.8284 16.1716C15.0783 15.4214 14.0609 15 13 15H5C3.93913 15 2.92172 15.4214 2.17157 16.1716C1.42143 16.9217 1 17.9391 1 19V21" stroke="#e3000f" stroke-width="2" stroke-linecap="round" stroke-linejoin="round"/>
  <path d="M9 11C11.2091 11 13 9.20914 13 7C13 4.79086 11.2091 3 9 3C6.79086 3 5 4.79086 5 7C5 9.20914 6.79086 11 9 11Z" stroke="#e3000f" stroke-width="2" stroke-linecap="round" stroke-linejoin="round"/>
  <path d="M23 18V16C22.9997 15.3049 22.7502 14.6335 22.3009 14.1125C21.8515 13.5915 21.2352 13.2595 20.56 13.18" stroke="#e3000f" stroke-width="2" stroke-linecap="round" stroke-linejoin="round"/>
  <path d="M16.56 3.18C17.2352 3.2595 17.8515 3.5915 18.3009 4.1125C18.7502 4.6335 18.9997 5.3049 19 6" stroke="#e3000f" stroke-width="2" stroke-linecap="round" stroke-linejoin="round"/>
</svg>
